<svg xmlns="http://www.w3.org/2000/svg" version="1.1" xmlns:xlink="http://www.w3.org/1999/xlink" xmlns:svgjs="http://svgjs.dev/svgjs" width="1500" height="693" viewBox="0 0 1500 693"><g transform="matrix(1,0,0,1,-0.9090909090909918,-0.08425274648146797)"><svg viewBox="0 0 396 183" data-background-color="#ffffff" preserveAspectRatio="xMidYMid meet" height="693" width="1500" xmlns="http://www.w3.org/2000/svg" xmlns:xlink="http://www.w3.org/1999/xlink"><g id="tight-bounds" transform="matrix(1,0,0,1,0.2400000000000091,0.02224856075918069)"><svg viewBox="0 0 395.52 182.95550287848164" height="182.95550287848164" width="395.52"><g><svg viewBox="0 0 395.52 182.95550287848164" height="182.95550287848164" width="395.52"><g><svg viewBox="0 0 395.52 182.95550287848164" height="182.95550287848164" width="395.52"><g id="textblocktransform"><svg viewBox="0 0 395.52 182.95550287848164" height="182.95550287848164" width="395.52" id="textblock"><g><svg viewBox="0 0 395.52 69.65928636779505" height="69.65928636779505" width="395.52"><g transform="matrix(1,0,0,1,0,0)"><svg width="395.52" viewBox="4 -38 218.58 38.5" height="69.65928636779505" data-palette-color="#d7dbde"><path d="M27.95 0L4 0 4-37 8.9-37 8.9-4.3 27.95-4.3 27.95 0ZM45.25 0.5L45.25 0.5Q41 0.5 38.1-1.48 35.2-3.45 33.7-6.6 32.2-9.75 32.2-13.25L32.2-13.25Q32.2-16.8 33.7-19.93 35.2-23.05 38.1-25.03 41-27 45.25-27L45.25-27Q49.5-27 52.4-25.03 55.3-23.05 56.8-19.93 58.3-16.8 58.3-13.25L58.3-13.25Q58.3-9.75 56.8-6.6 55.3-3.45 52.4-1.48 49.5 0.5 45.25 0.5ZM45.25-3.65L45.25-3.65Q47.95-3.65 49.77-5.03 51.6-6.4 52.52-8.6 53.45-10.8 53.45-13.25L53.45-13.25Q53.45-15.75 52.52-17.93 51.6-20.1 49.77-21.48 47.95-22.85 45.25-22.85L45.25-22.85Q42.6-22.85 40.75-21.48 38.9-20.1 37.97-17.93 37.05-15.75 37.05-13.25L37.05-13.25Q37.05-10.8 37.97-8.6 38.9-6.4 40.75-5.03 42.6-3.65 45.25-3.65ZM77.09 0.5L77.09 0.5Q73.84 0.5 71.4-0.68 68.95-1.85 67.32-3.83 65.7-5.8 64.87-8.25 64.05-10.7 64.05-13.25L64.05-13.25Q64.05-15.8 64.84-18.23 65.64-20.65 67.27-22.65 68.89-24.65 71.34-25.83 73.8-27 77.09-27L77.09-27Q80.3-27 82.4-26.05 84.5-25.1 85.77-23.68 87.05-22.25 87.67-20.83 88.3-19.4 88.5-18.45 88.7-17.5 88.7-17.5L88.7-17.5 84.09-17.5Q84.09-17.5 83.84-18.32 83.59-19.15 82.9-20.2 82.2-21.25 80.8-22.08 79.4-22.9 77.09-22.9L77.09-22.9Q74.34-22.9 72.47-21.53 70.59-20.15 69.67-17.95 68.75-15.75 68.75-13.25L68.75-13.25Q68.75-10.75 69.67-8.55 70.59-6.35 72.47-4.98 74.34-3.6 77.09-3.6L77.09-3.6Q79.4-3.6 80.8-4.42 82.2-5.25 82.9-6.3 83.59-7.35 83.84-8.18 84.09-9 84.09-9L84.09-9 88.7-9Q88.7-9 88.5-8.05 88.3-7.1 87.67-5.68 87.05-4.25 85.77-2.83 84.5-1.4 82.4-0.45 80.3 0.5 77.09 0.5ZM106.69-27L106.69-27Q109.19-27 110.89-26.2 112.59-25.4 113.64-24.33 114.69-23.25 115.24-22.3L115.24-22.3 115.54-22.3 115.54-26.5 120.29-26.5 120.29 0 115.54 0 115.54-4.2 115.24-4.2Q114.69-3.25 113.64-2.15 112.59-1.05 110.89-0.28 109.19 0.5 106.69 0.5L106.69 0.5Q103.69 0.5 101.44-0.68 99.19-1.85 97.69-3.83 96.19-5.8 95.44-8.25 94.69-10.7 94.69-13.25L94.69-13.25Q94.69-15.8 95.44-18.25 96.19-20.7 97.69-22.68 99.19-24.65 101.44-25.83 103.69-27 106.69-27ZM107.49-22.95L107.49-22.95Q104.84-22.95 103.04-21.53 101.24-20.1 100.37-17.9 99.49-15.7 99.49-13.25L99.49-13.25Q99.49-10.85 100.37-8.63 101.24-6.4 103.04-4.98 104.84-3.55 107.49-3.55L107.49-3.55Q110.14-3.55 111.92-4.98 113.69-6.4 114.57-8.63 115.44-10.85 115.44-13.25L115.44-13.25Q115.44-15.7 114.57-17.9 113.69-20.1 111.92-21.53 110.14-22.95 107.49-22.95ZM151.74 0L127.79 0 127.79-37 132.69-37 132.69-4.3 151.74-4.3 151.74 0ZM161.59-31.55L161.59-31.55Q160.24-31.55 159.36-32.45 158.49-33.35 158.49-34.6L158.49-34.6Q158.49-35.9 159.36-36.8 160.24-37.7 161.59-37.7L161.59-37.7Q162.89-37.7 163.79-36.8 164.69-35.9 164.69-34.6L164.69-34.6Q164.69-33.35 163.79-32.45 162.89-31.55 161.59-31.55ZM163.99 0L159.24 0 159.24-26.5 163.99-26.5 163.99 0ZM176.44 0L171.69 0 171.69-26.5 176.44-26.5 176.44-22.65 176.74-22.65Q177.09-23.25 177.91-24.3 178.74-25.35 180.28-26.18 181.84-27 184.19-27L184.19-27Q187.09-27 189.13-25.68 191.19-24.35 192.26-22.1 193.34-19.85 193.34-17.05L193.34-17.05 193.34 0 188.59 0 188.59-16.75Q188.59-19.4 187.11-21.15 185.63-22.9 182.84-22.9L182.84-22.9Q180.59-22.9 179.19-21.78 177.78-20.65 177.11-18.82 176.44-17 176.44-14.95L176.44-14.95 176.44 0ZM205.58 0L200.83 0 200.83-38 205.58-38 205.58-15.9 216.13-26.5 222.33-26.5 210.13-14.45 222.58 0 216.53 0 205.58-12.75 205.58 0Z" opacity="1" transform="matrix(1,0,0,1,0,0)" fill="#d7dbde" class="wordmark-text-0" data-fill-palette-color="primary" id="text-0"></path></svg></g></svg></g><g transform="matrix(1,0,0,1,0,102.54905774492221)"><svg viewBox="0 0 395.52 80.40644513355942" height="80.40644513355942" width="395.52"><path d="M395.52 0l-13.401 40.203 13.401 40.203h-395.52l13.401-40.203-13.401-40.203z" data-fill-palette-color="tertiary" opacity="1" fill="#d7dbde"></path><g transform="matrix(1,0,0,1,75.54432,16.444885688563584)"><svg width="244.43135999999998" viewBox="1.98 -35.11 213.46 41.51" height="47.51667375643225" data-palette-color="#ffffff"><path d="M9.18 0.27L9.18 0.27 9.08 0.27Q8.28 0.27 7.62 0.16 6.96 0.05 6.2-0.28 5.44-0.61 4.86-1.16 4.27-1.71 3.71-2.67 3.15-3.64 2.78-4.94 2.42-6.25 2.2-8.14 1.98-10.03 1.98-12.4L1.98-12.4Q1.98-15.55 2.39-17.87 2.81-20.19 3.44-21.51 4.08-22.83 5.04-23.61 6.01-24.39 6.88-24.62 7.76-24.85 8.89-24.85L8.89-24.85Q10.52-24.85 11.96-24.32L11.96-24.32Q12.04-24.32 12.13-24.19 12.23-24.07 12.23-24L12.23-24 12.23-21.9Q12.23-21.78 12.13-21.66 12.04-21.53 11.96-21.56L11.96-21.56Q10.55-22 9.67-22L9.67-22Q8.94-22 8.45-21.88 7.96-21.75 7.35-21.22 6.74-20.68 6.37-19.69 6.01-18.7 5.75-16.86 5.49-15.01 5.49-12.4L5.49-12.4Q5.49-9.77 5.73-7.91 5.96-6.05 6.31-5.03 6.67-4 7.26-3.44 7.86-2.88 8.39-2.75 8.91-2.61 9.69-2.61L9.69-2.61Q10.67-2.61 11.96-3.03L11.96-3.03Q12.04-3 12.15-2.84 12.26-2.69 12.26-2.59L12.26-2.59 12.26-0.63Q12.26-0.54 12.15-0.38 12.04-0.22 11.96-0.2L11.96-0.2Q10.69 0.27 9.18 0.27ZM24.62 0.07Q23.78 0.27 22.68 0.27 21.58 0.27 20.73 0.07 19.87-0.12 18.85-0.88 17.82-1.64 17.16-2.93 16.5-4.22 16.05-6.63 15.6-9.03 15.6-12.33L15.6-12.33Q15.6-14.72 15.83-16.64 16.06-18.55 16.44-19.85 16.82-21.14 17.4-22.08 17.99-23.02 18.56-23.55 19.14-24.07 19.91-24.38 20.68-24.68 21.29-24.77 21.9-24.85 22.68-24.85L22.68-24.85Q23.44-24.85 24.06-24.77 24.68-24.68 25.44-24.38 26.19-24.07 26.76-23.55 27.32-23.02 27.9-22.08 28.49-21.14 28.85-19.85 29.22-18.55 29.45-16.64 29.69-14.72 29.69-12.33L29.69-12.33Q29.69-9.03 29.23-6.63 28.78-4.22 28.12-2.93 27.46-1.64 26.46-0.88 25.46-0.12 24.62 0.07ZM22.65-2.49L22.65-2.49Q23.48-2.49 24.06-2.84 24.63-3.2 25.14-4.2 25.66-5.2 25.91-7.23 26.17-9.25 26.17-12.33L26.17-12.33Q26.17-15.43 25.91-17.46 25.66-19.48 25.13-20.45 24.61-21.41 24.05-21.75 23.48-22.09 22.65-22.09 21.82-22.09 21.25-21.75 20.68-21.41 20.16-20.43 19.65-19.46 19.39-17.44 19.14-15.43 19.14-12.33L19.14-12.33Q19.14-9.25 19.38-7.23 19.63-5.2 20.14-4.2 20.65-3.2 21.23-2.84 21.8-2.49 22.65-2.49ZM36.86 0L34.74 0Q34.13 0 34.13-1.22L34.13-1.22 34.13-23.05Q34.13-24.56 34.71-24.56L34.71-24.56 35.18-24.56Q35.52-24.56 35.7-24.34 35.88-24.12 36.01-23.36L36.01-23.36 36.4-20.17Q36.47-19.9 36.57-19.9 36.66-19.9 36.71-20.17L36.71-20.17Q37.1-21.61 37.73-22.58 38.35-23.56 39.09-24.02 39.84-24.49 40.51-24.67 41.18-24.85 41.99-24.85L41.99-24.85Q43.67-24.85 44.73-24.01 45.8-23.17 46.41-20.89 47.02-18.6 47.02-14.72L47.02-14.72 47.02-1.22Q47.02-0.49 46.87-0.24 46.72 0 46.43 0L46.43 0 44.28 0Q43.99 0 43.84-0.24 43.7-0.49 43.7-1.22L43.7-1.22 43.7-15.23Q43.7-18.8 43.11-20.45 42.52-22.09 41.28-22.09L41.28-22.09Q39.64-22.09 38.54-20.01 37.45-17.92 37.45-14.97L37.45-14.97 37.45-1.22Q37.45-0.49 37.3-0.24 37.15 0 36.86 0L36.86 0ZM54.53 0L52.41 0Q51.8 0 51.8-1.22L51.8-1.22 51.8-23.05Q51.8-24.56 52.39-24.56L52.39-24.56 52.85-24.56Q53.19-24.56 53.37-24.34 53.56-24.12 53.68-23.36L53.68-23.36 54.07-20.17Q54.14-19.9 54.24-19.9 54.34-19.9 54.39-20.17L54.39-20.17Q54.78-21.61 55.4-22.58 56.02-23.56 56.77-24.02 57.51-24.49 58.18-24.67 58.85-24.85 59.66-24.85L59.66-24.85Q61.35-24.85 62.41-24.01 63.47-23.17 64.08-20.89 64.69-18.6 64.69-14.72L64.69-14.72 64.69-1.22Q64.69-0.49 64.54-0.24 64.4 0 64.1 0L64.1 0 61.96 0Q61.66 0 61.52-0.24 61.37-0.49 61.37-1.22L61.37-1.22 61.37-15.23Q61.37-18.8 60.78-20.45 60.2-22.09 58.95-22.09L58.95-22.09Q57.32-22.09 56.22-20.01 55.12-17.92 55.12-14.97L55.12-14.97 55.12-1.22Q55.12-0.49 54.97-0.24 54.83 0 54.53 0L54.53 0ZM72.55-13.72L72.55-13.72 79.04-13.72Q79.09-13.72 79.09-14.16L79.09-14.16Q78.95-18.29 78.19-20.2 77.43-22.12 75.84-22.12L75.84-22.12Q72.89-22.12 72.48-15.04L72.48-15.04Q72.48-13.72 72.55-13.72ZM81.8-6.49L81.8-6.01Q81.8-3.3 80.37-1.51 78.95 0.27 76.14 0.27L76.14 0.27Q68.98 0.27 68.98-12.3L68.98-12.3Q68.98-15.41 69.41-17.74 69.84-20.07 70.5-21.4 71.16-22.73 72.11-23.55 73.06-24.37 73.95-24.62 74.84-24.88 75.89-24.88L75.89-24.88Q82-24.88 82-13.31L82-13.31Q82-11.55 81.26-11.55L81.26-11.55 72.62-11.55Q72.45-11.55 72.45-11.04L72.45-11.04Q72.45-8.62 72.82-6.76 73.18-4.91 74.07-3.7 74.97-2.49 76.28-2.49L76.28-2.49Q77.19-2.49 77.81-2.92 78.43-3.34 78.74-4.15 79.04-4.96 79.15-5.53 79.26-6.1 79.36-7.01L79.36-7.01Q79.41-7.5 79.68-7.5L79.68-7.5 81.34-7.5Q81.8-7.5 81.8-6.49L81.8-6.49ZM93.37 0.27L93.37 0.27 93.27 0.27Q92.47 0.27 91.81 0.16 91.15 0.05 90.39-0.28 89.64-0.61 89.05-1.16 88.46-1.71 87.9-2.67 87.34-3.64 86.97-4.94 86.61-6.25 86.39-8.14 86.17-10.03 86.17-12.4L86.17-12.4Q86.17-15.55 86.58-17.87 87-20.19 87.63-21.51 88.27-22.83 89.23-23.61 90.2-24.39 91.08-24.62 91.96-24.85 93.08-24.85L93.08-24.85Q94.71-24.85 96.15-24.32L96.15-24.32Q96.23-24.32 96.33-24.19 96.42-24.07 96.42-24L96.42-24 96.42-21.9Q96.42-21.78 96.33-21.66 96.23-21.53 96.15-21.56L96.15-21.56Q94.74-22 93.86-22L93.86-22Q93.13-22 92.64-21.88 92.15-21.75 91.54-21.22 90.93-20.68 90.56-19.69 90.2-18.7 89.94-16.86 89.68-15.01 89.68-12.4L89.68-12.4Q89.68-9.77 89.92-7.91 90.15-6.05 90.5-5.03 90.86-4 91.45-3.44 92.05-2.88 92.58-2.75 93.1-2.61 93.88-2.61L93.88-2.61Q94.86-2.61 96.15-3.03L96.15-3.03Q96.23-3 96.34-2.84 96.45-2.69 96.45-2.59L96.45-2.59 96.45-0.63Q96.45-0.54 96.34-0.38 96.23-0.22 96.15-0.2L96.15-0.2Q94.88 0.27 93.37 0.27ZM109.53 0.05L107.24 0.05Q106.33 0.05 105.65-0.11 104.97-0.27 104.29-0.76 103.62-1.25 103.2-2.09 102.77-2.93 102.51-4.33 102.26-5.74 102.26-7.67L102.26-7.67 102.26-21.04Q102.26-21.48 101.99-21.48L101.99-21.48 100.42-21.48Q99.84-21.48 99.84-22.56L99.84-22.56 99.84-23.49Q99.84-24.56 100.42-24.56L100.42-24.56 101.99-24.56Q102.23-24.56 102.26-25.22L102.26-25.22 102.67-33.86Q102.69-35.11 103.28-35.11L103.28-35.11 104.99-35.11Q105.28-35.11 105.43-34.85 105.58-34.59 105.58-33.86L105.58-33.86 105.58-25.22Q105.58-24.56 105.87-24.56L105.87-24.56 109.02-24.56Q109.31-24.56 109.46-24.34 109.6-24.12 109.6-23.49L109.6-23.49 109.6-22.56Q109.6-21.92 109.46-21.7 109.31-21.48 109.02-21.48L109.02-21.48 105.87-21.48Q105.7-21.48 105.64-21.41 105.58-21.34 105.58-21.04L105.58-21.04 105.58-7.67Q105.58-5.62 105.93-4.49 106.28-3.37 106.74-3.09 107.19-2.81 107.9-2.81L107.9-2.81 109.58-2.81Q110.24-2.81 110.24-2.08L110.24-2.08 110.24-0.78Q110.24 0.05 109.53 0.05L109.53 0.05ZM131.62 0L121.56 0Q121.37 0 121.26-0.06 121.15-0.12 121.06-0.39 120.98-0.66 120.98-1.15L120.98-1.15 120.98-33.96Q120.98-34.67 121.12-34.89 121.27-35.11 121.56-35.11L121.56-35.11 124.32-35.11Q124.52-35.11 124.63-35.05 124.74-34.99 124.82-34.72 124.91-34.45 124.91-33.96L124.91-33.96 124.91-3.64Q124.91-3.13 125.22-3.13L125.22-3.13 131.62-3.13Q131.84-3.13 131.94-3.09 132.04-3.05 132.13-2.87 132.23-2.69 132.23-2.29L132.23-2.29 132.23-0.88Q132.23-0.32 132.08-0.16 131.94 0 131.62 0L131.62 0ZM144.3 0.07Q143.46 0.27 142.36 0.27 141.26 0.27 140.41 0.07 139.55-0.12 138.53-0.88 137.5-1.64 136.84-2.93 136.18-4.22 135.73-6.63 135.28-9.03 135.28-12.33L135.28-12.33Q135.28-14.72 135.51-16.64 135.74-18.55 136.12-19.85 136.5-21.14 137.09-22.08 137.67-23.02 138.25-23.55 138.82-24.07 139.59-24.38 140.36-24.68 140.97-24.77 141.58-24.85 142.36-24.85L142.36-24.85Q143.12-24.85 143.74-24.77 144.36-24.68 145.12-24.38 145.88-24.07 146.44-23.55 147-23.02 147.58-22.08 148.17-21.14 148.54-19.85 148.9-18.55 149.14-16.64 149.37-14.72 149.37-12.33L149.37-12.33Q149.37-9.03 148.92-6.63 148.46-4.22 147.8-2.93 147.15-1.64 146.14-0.88 145.14-0.12 144.3 0.07ZM142.34-2.49L142.34-2.49Q143.17-2.49 143.74-2.84 144.31-3.2 144.83-4.2 145.34-5.2 145.6-7.23 145.85-9.25 145.85-12.33L145.85-12.33Q145.85-15.43 145.6-17.46 145.34-19.48 144.81-20.45 144.29-21.41 143.73-21.75 143.17-22.09 142.34-22.09 141.51-22.09 140.93-21.75 140.36-21.41 139.85-20.43 139.33-19.46 139.08-17.44 138.82-15.43 138.82-12.33L138.82-12.33Q138.82-9.25 139.06-7.23 139.31-5.2 139.82-4.2 140.33-3.2 140.91-2.84 141.48-2.49 142.34-2.49ZM160.52 0.27L160.52 0.27 160.42 0.27Q159.62 0.27 158.96 0.16 158.3 0.05 157.54-0.28 156.79-0.61 156.2-1.16 155.61-1.71 155.05-2.67 154.49-3.64 154.13-4.94 153.76-6.25 153.54-8.14 153.32-10.03 153.32-12.4L153.32-12.4Q153.32-15.55 153.73-17.87 154.15-20.19 154.78-21.51 155.42-22.83 156.38-23.61 157.35-24.39 158.23-24.62 159.11-24.85 160.23-24.85L160.23-24.85Q161.86-24.85 163.31-24.32L163.31-24.32Q163.38-24.32 163.48-24.19 163.57-24.07 163.57-24L163.57-24 163.57-21.9Q163.57-21.78 163.48-21.66 163.38-21.53 163.31-21.56L163.31-21.56Q161.89-22 161.01-22L161.01-22Q160.28-22 159.79-21.88 159.3-21.75 158.69-21.22 158.08-20.68 157.71-19.69 157.35-18.7 157.09-16.86 156.84-15.01 156.84-12.4L156.84-12.4Q156.84-9.77 157.07-7.91 157.3-6.05 157.65-5.03 158.01-4 158.61-3.44 159.2-2.88 159.73-2.75 160.25-2.61 161.03-2.61L161.03-2.61Q162.01-2.61 163.31-3.03L163.31-3.03Q163.38-3 163.49-2.84 163.6-2.69 163.6-2.59L163.6-2.59 163.6-0.63Q163.6-0.54 163.49-0.38 163.38-0.22 163.31-0.2L163.31-0.2Q162.04 0.27 160.52 0.27ZM172.51-2.32L172.51-2.32Q174.44-2.32 175.53-4.81 176.63-7.3 176.63-10.94L176.63-10.94Q176.63-12.65 176.46-12.65L176.46-12.65Q176.44-12.65 175.94-12.57 175.44-12.5 175.39-12.48L175.39-12.48Q172.43-11.82 171.15-10.21 169.87-8.59 169.87-6.08L169.87-6.08Q169.87-2.32 172.51-2.32ZM171.85 0.29L171.85 0.29Q169.38 0.29 168.1-1.29 166.82-2.88 166.82-5.81L166.82-5.81Q166.82-7.96 167.48-9.59 168.14-11.23 169.14-12.1 170.14-12.96 171.36-13.55 172.58-14.14 173.63-14.32 174.68-14.5 175.53-14.67 176.39-14.84 176.56-14.97L176.56-14.97 176.56-16.31Q176.56-19.14 175.94-20.62 175.31-22.09 173.61-22.09L173.61-22.09Q172.09-22.09 171.37-21.25 170.65-20.41 170.11-18.6L170.11-18.6Q169.97-18.19 169.82-18.04 169.67-17.9 169.45-17.94L169.45-17.94Q169.11-18.02 168.27-18.29 167.43-18.55 167.4-18.68L167.4-18.68Q167.16-18.92 167.43-20L167.43-20Q167.87-21.56 168.58-22.58 169.28-23.61 170.59-24.23 171.9-24.85 173.78-24.85L173.78-24.85Q176.88-24.85 178.38-22.62 179.88-20.39 179.88-15.16L179.88-15.16 179.88-1.2Q179.88 0 179.37 0L179.37 0 178.78 0Q178.39 0 178.12-1L178.12-1Q177.41-3.98 177.37-4.59L177.37-4.59Q177.37-4.66 177.32-4.7 177.27-4.74 177.23-4.7 177.19-4.66 177.17-4.59L177.17-4.59Q176.56-2.22 175.3-0.96 174.04 0.29 171.85 0.29ZM188.28 0L186.15 0Q185.54 0 185.54-1.42L185.54-1.42 185.54-33.57Q185.54-35.11 186.15-35.11L186.15-35.11 188.28-35.11Q188.86-35.11 188.86-33.57L188.86-33.57 188.86-1.42Q188.86 0 188.28 0L188.28 0ZM197.45 0L195.33 0Q194.72 0 194.72-1.42L194.72-1.42 194.72-33.57Q194.72-35.11 195.33-35.11L195.33-35.11 197.45-35.11Q198.04-35.11 198.04-33.57L198.04-33.57 198.04-1.42Q198.04 0 197.45 0L197.45 0ZM205.95 3.47L205.95 3.47Q206.61 3.47 207.18 2.34 207.75 1.22 207.75-0.39L207.75-0.39Q207.75-1.03 207.26-3.08L207.26-3.08 202.14-23.12Q202.09-23.46 202.09-23.66L202.09-23.66Q202.09-24.56 202.46-24.56L202.46-24.56 204.77-24.56Q205.43-24.56 205.63-23.34L205.63-23.34 209.32-6.64Q209.41-6.37 209.44-6.37L209.44-6.37Q209.54-6.37 209.54-6.64L209.54-6.64 212.56-23.27Q212.73-24.56 213.37-24.56L213.37-24.56 215.03-24.56Q215.44-24.56 215.44-23.58L215.44-23.58Q215.44-23.54 215.37-23.02L215.37-23.02 210.98-0.34Q210.29 3.44 209.25 4.88 208.22 6.32 206.51 6.4L206.51 6.4 206.19 6.4Q204.24 6.4 203.65 5.42L203.65 5.42Q203.53 5.2 203.53 4.54L203.53 4.54Q203.53 3.03 204.07 3.03L204.07 3.03Q204.14 3.03 204.9 3.25 205.65 3.47 205.95 3.47Z" opacity="1" transform="matrix(1,0,0,1,0,0)" fill="#ffffff" class="slogan-text-1" data-fill-palette-color="quaternary" id="text-1"></path></svg></g></svg></g></svg></g></svg></g></svg></g><defs></defs></svg><rect width="395.52" height="182.95550287848164" fill="none" stroke="none" visibility="hidden"></rect></g></svg></g></svg>